<svg id="svg2" width="160" height="160" version="1.1" viewBox="0 0 160 160" xmlns="http://www.w3.org/2000/svg" xmlns:xlink="http://www.w3.org/1999/xlink"><title id="title4420">Software Boutique 2.0</title><defs id="defs4"><linearGradient id="linearGradient4322" x1="2.5318" x2="155.77" y1="916.79" y2="1027.4" gradientUnits="userSpaceOnUse"><stop id="stop4318" style="stop-color:#87a556" offset="0"/><stop id="stop4320" style="stop-color:#a3bb7c" offset="1"/></linearGradient></defs><g id="layer1" transform="matrix(.20516 0 0 .20516 87.796 -45.752)"><g id="Shadow" transform="matrix(.94153 0 0 .94153 -424.71 9.3931)" style="stroke-width:15;stroke:url(#linearGradient4322)"><path id="Hook" transform="matrix(5.1769 0 0 5.1769 -3.4282 226.88)" d="m79.219 25.146c-5.6782-0.001931-11.019 2.3673-14.826 6.5801-3.807 4.2129-5.6262 9.7653-5.0508 15.414a7.308 7.308 0 1 0 14.541-1.4805c-0.1401-1.3754 0.42664-3.1091 1.3535-4.1348 0.92697-1.0258 2.5939-1.7661 3.9766-1.7656 1.1251 3.86e-4 2.4268 0.43314 3.3867 1.1504 0.96883 0.72395 1.8077 1.887 2.2109 3.1055 0.23203 0.7011 0.27906 1.2926 0.24414 1.6289a7.308 7.308 0 0 0 0 0.001953c-0.071025 0.68415-0.79194 2.2284-2.3652 4.0957-1.6272 1.9311-4.2177 4.3127-6.4492 8.0684-1.9743 3.3231-3.0834 7.0374-3.3164 10.834l-58.846 33.654c-3.0115 1.5116-5.4961 3.8361-7.1875 6.7656-1.7863 3.094-2.5608 6.6178-2.2363 10.176 0.36773 4.0346 2.1085 7.7472 4.9727 10.611 2.8644 2.8643 6.5793 4.6047 10.613 4.9727a7.308 7.308 0 0 0 0.66406 0.0293h121.79a7.308 7.308 0 0 0 4.0547-1.2285c5.0793-3.388 8.2384-8.8562 8.6328-14.949 0.27735-4.2854-0.85171-8.498-3.2344-12.07a7.308 7.308 0 0 0-2.4258-2.2734l-62.076-35.84c0.20141-1.1462 0.59625-2.261 1.1641-3.2168 0.88391-1.4874 2.7582-3.3848 5.0605-6.1172 2.3564-2.7968 5.1659-6.6219 5.7246-12.004 0.29215-2.8138-0.14122-5.4247-0.9043-7.7305-1.3406-4.0507-3.8605-7.6222-7.3379-10.221-3.4863-2.605-7.7036-4.0551-12.129-4.0566zm1.1973 56.051 60.115 34.707c0.19402 0.60186 0.29769 1.2402 0.25977 1.8262-0.05315 0.82104-0.44824 1.7367-0.98829 2.5098h-118.34c-0.51957-0.0764-1.1443-0.36504-1.502-0.72265-0.38084-0.38098-0.70316-1.07-0.75195-1.6055-0.044362-0.48648 0.093623-1.116 0.33789-1.5391 0.24416-0.42289 0.72054-0.85764 1.1641-1.0625a7.308 7.308 0 0 0 0.56445-0.29102l59.141-33.822z" style="color-rendering:auto;color:#000000;dominant-baseline:auto;fill:#87a556;font-feature-settings:normal;font-variant-alternates:normal;font-variant-caps:normal;font-variant-ligatures:normal;font-variant-numeric:normal;font-variant-position:normal;image-rendering:auto;isolation:auto;mix-blend-mode:normal;shape-padding:0;shape-rendering:auto;solid-color:#000000;stroke-linecap:round;stroke-linejoin:round;stroke-opacity:.97511;stroke-width:1;stroke:#758a53"/></g></g></svg>
