<svg xmlns="http://www.w3.org/2000/svg" viewBox="0 0 512 512" height="512" width="512"    version="1.1"><path d="m 253.39966,73.893055 c -18.6916,-0.0095 -36.29037,7.811691 -48.82235,21.680451 -12.53105,13.867804 -18.52969,32.165304 -16.63578,50.759254 a 23.540058,23.540058 0 1 0 46.83637,-4.76888 c -0.49208,-4.83085 1.47149,-10.828 4.72592,-14.42903 3.25585,-3.60309 9.02745,-6.16795 13.88362,-6.16641 3.9393,0 8.44871,1.50342 11.79332,4.00263 3.37408,2.52138 6.26387,6.53914 7.66202,10.7636 0.80424,2.43026 0.98319,4.51657 0.852,5.78023 -0.26459,2.549 -2.78821,7.83769 -8.07884,14.11652 -5.46488,6.4859 -14.06342,14.40245 -21.42915,26.79871 -6.56706,11.0524 -10.0357,23.443 -10.76359,36.07886 l -197.06084,112.6928 1.820485,-0.93778 c -10.657956,4.92227 -19.41474,12.91717 -25.284619,23.08393 -5.8695082,10.16705 -8.4155973,21.75197 -7.3494089,33.44322 1.2084852,13.25562 6.9300899,25.46595 16.3415159,34.87762 9.411779,9.41167 21.629529,15.1325 34.883639,16.34146 a 23.540058,23.540058 0 0 0 2.133078,0.0976 h 406.16647 a 23.540058,23.540058 0 0 0 13.06216,-3.95365 c 16.71472,-11.14911 27.11919,-29.17705 28.41694,-49.22713 0.91302,-14.10476 -2.80404,-27.97939 -10.64716,-39.7382 a 23.540058,23.540058 0 0 0 -7.80915,-7.31846 L 280.69483,218.12803 c 0.6488,-4.14963 1.91065,-8.19345 3.96586,-11.65233 3.02414,-5.08954 9.31362,-11.44738 16.9545,-20.51577 7.81519,-9.27494 17.06804,-21.90353 18.9037,-39.5851 0.95965,-9.24292 -0.47066,-17.83371 -2.9851,-25.4318 C 313.11595,107.59468 304.81265,95.819865 293.35861,87.260871 281.87507,78.679774 267.97103,73.896946 253.39966,73.892173 Z m 3.9965,185.138745 201.02057,116.05813 c 0.7876,2.23706 1.30817,4.58045 1.16461,6.79769 -0.20183,3.11793 -1.90716,6.33984 -4.02713,9.14548 H 60.837951 c -1.948723,-0.24173 -4.296614,-1.29333 -5.657642,-2.65407 -1.411517,-1.41156 -2.571032,-3.87934 -2.752195,-5.8663 -0.163855,-1.79663 0.335848,-4.06379 1.238182,-5.62698 0.902086,-1.56239 2.615178,-3.12308 4.253942,-3.88008 a 23.540058,23.540058 0 0 0 1.814389,-0.93763 z" /></svg>
