<svg width="24" height="24" version="1.1" xmlns="http://www.w3.org/2000/svg" xmlns:xlink="http://www.w3.org/1999/xlink"><defs><linearGradient id="linearGradient4364"><stop style="stop-color:#4083c2" offset="0"/><stop style="stop-color:#1f4b6a" offset="1"/></linearGradient><linearGradient id="linearGradient3926"><stop style="stop-color:#cd8033" offset="0"/><stop style="stop-color:#bb5e12" offset="1"/></linearGradient><linearGradient id="linearGradient4281"><stop style="stop-color:#69aa28" offset="0"/><stop style="stop-color:#548820" offset="1"/></linearGradient><linearGradient id="linearGradient4253"><stop style="stop-opacity:.35088" offset="0"/><stop style="stop-opacity:0" offset=".5"/><stop style="stop-opacity:.10588" offset="1"/></linearGradient><linearGradient id="linearGradient4241"><stop style="stop-opacity:.27059" offset="0"/><stop style="stop-opacity:0" offset=".5"/><stop style="stop-opacity:.27059" offset="1"/></linearGradient><linearGradient id="linearGradient3280"><stop offset="0"/><stop style="stop-opacity:0" offset="1"/></linearGradient><linearGradient id="linearGradient9421"><stop style="stop-color:#fff" offset="0"/><stop style="stop-color:#fff;stop-opacity:0" offset="1"/></linearGradient><filter id="filter9752" x="-.82964" y="-.064677" width="2.6593" height="1.1294" color-interpolation-filters="sRGB"><feGaussianBlur stdDeviation="1.0370543"/></filter><filter id="filter9752-2" x="-.82964" y="-.064677" width="2.6593" height="1.1294" color-interpolation-filters="sRGB"><feGaussianBlur stdDeviation="1.0370543"/></filter><linearGradient id="linearGradient10367"><stop style="stop-color:#fff" offset="0"/><stop style="stop-color:#204a87" offset="1"/></linearGradient><radialGradient id="radialGradient7311" cx="550.62" cy="221.12" r="2.75" gradientTransform="matrix(.1384 0 0 .13775 -67.758 -14.061)" gradientUnits="userSpaceOnUse" xlink:href="#linearGradient10367"/><radialGradient id="radialGradient7314" cx="550.62" cy="221.12" r="2.75" gradientTransform="matrix(.1384 0 0 .13775 -67.637 -15.571)" gradientUnits="userSpaceOnUse" xlink:href="#linearGradient10367"/><radialGradient id="radialGradient7317" cx="550.62" cy="221.12" r="2.75" gradientTransform="matrix(.1384 0 0 .13775 -58.051 -10.196)" gradientUnits="userSpaceOnUse" xlink:href="#linearGradient10367"/><radialGradient id="radialGradient7320" cx="550.62" cy="221.12" r="2.75" gradientTransform="matrix(.1384 0 0 .13775 -57.347 -10.74)" gradientUnits="userSpaceOnUse" xlink:href="#linearGradient10367"/><radialGradient id="radialGradient7323" cx="550.62" cy="221.12" r="2.75" gradientTransform="matrix(.1384 0 0 .13775 -61.934 -10.196)" gradientUnits="userSpaceOnUse" xlink:href="#linearGradient10367"/><radialGradient id="radialGradient7326" cx="550.62" cy="221.12" r="2.75" gradientTransform="matrix(.1384 0 0 .13775 -70.088 -15.994)" gradientUnits="userSpaceOnUse" xlink:href="#linearGradient10367"/><radialGradient id="radialGradient7329" cx="550.62" cy="221.12" r="2.75" gradientTransform="matrix(.1384 0 0 .13775 -59.41 -10.196)" gradientUnits="userSpaceOnUse" xlink:href="#linearGradient10367"/><radialGradient id="radialGradient7332" cx="550.62" cy="221.12" r="2.75" gradientTransform="matrix(.1384 0 0 .13775 -62.201 -10.74)" gradientUnits="userSpaceOnUse" xlink:href="#linearGradient10367"/><linearGradient id="linearGradient7338" x1="20.007" x2="23.5" y1="20.094" y2="47.798" gradientTransform="matrix(.39831 0 0 .34533 7.4279 3.496)" gradientUnits="userSpaceOnUse" xlink:href="#linearGradient4364"/><linearGradient id="linearGradient7342" x1="13.776" x2="32.697" y1="44.446" y2="43.446" gradientTransform="matrix(.30868 0 0 .4529 9.4408 -1.8247)" gradientUnits="userSpaceOnUse"><stop style="stop-color:#8badea" offset="0"/><stop style="stop-color:#fbfbfb;stop-opacity:0" offset="1"/></linearGradient><linearGradient id="linearGradient7345" x1="15" x2="32" y1="23" y2="23" gradientTransform="matrix(.42341 0 0 .4062 6.4972 4.1711)" gradientUnits="userSpaceOnUse" xlink:href="#linearGradient4253"/><linearGradient id="linearGradient7348" x1="15" x2="32" y1="23" y2="23" gradientTransform="matrix(.40099 0 0 .34752 7.1857 5.4006)" gradientUnits="userSpaceOnUse"><stop style="stop-color:#2a648f" offset="0"/><stop style="stop-color:#8badea" offset=".37918"/><stop style="stop-color:#2a648f" offset="1"/></linearGradient><linearGradient id="linearGradient7350" x1="18.805" x2="26.856" y1="5.8" y2="43.218" gradientTransform="matrix(.40099 0 0 .34752 7.1857 5.4006)" gradientUnits="userSpaceOnUse" xlink:href="#linearGradient4364"/><linearGradient id="linearGradient7354" x1="15" x2="32" y1="23" y2="23" gradientTransform="matrix(.45617 0 0 .42356 5.7799 2.7985)" gradientUnits="userSpaceOnUse" xlink:href="#linearGradient4241"/><radialGradient id="radialGradient7357" cx="21.344" cy="14.125" r="11.969" gradientTransform="matrix(.54308 0 0 .24559 -4.0914 17.031)" gradientUnits="userSpaceOnUse" xlink:href="#linearGradient3280"/><radialGradient id="radialGradient7360" cx="550.62" cy="221.12" r="2.75" gradientTransform="matrix(.1384 0 0 .13775 -69.7 -12.129)" gradientUnits="userSpaceOnUse" xlink:href="#linearGradient10367"/><radialGradient id="radialGradient7364" cx="550.62" cy="221.12" r="2.75" gradientTransform="matrix(.1384 0 0 .13775 -69.578 -13.638)" gradientUnits="userSpaceOnUse" xlink:href="#linearGradient10367"/><linearGradient id="linearGradient7367" x1="718.5" x2="718.5" y1="56.875" y2="110.92" gradientTransform="translate(-696.97 -54.5)" gradientUnits="userSpaceOnUse"><stop style="stop-color:#fff" offset="0"/><stop style="stop-color:#fff;stop-opacity:0" offset="1"/></linearGradient><linearGradient id="linearGradient7371" x1="22" x2="29.624" y1="27.732" y2="61.085" gradientTransform="matrix(.46905 0 0 .3453 -2.3192 -4.5028)" gradientUnits="userSpaceOnUse" xlink:href="#linearGradient3926"/><linearGradient id="linearGradient7375" x1="13.776" x2="32.697" y1="44.446" y2="43.446" gradientTransform="matrix(.39171 0 0 .4529 -1.0482 -9.8161)" gradientUnits="userSpaceOnUse"><stop style="stop-color:#cd8033" offset="0"/><stop style="stop-color:#fbfbfb;stop-opacity:0" offset="1"/></linearGradient><linearGradient id="linearGradient7378" x1="15" x2="32" y1="23" y2="23" gradientTransform="matrix(.42105 0 0 .43883 -1.0526 .80587)" gradientUnits="userSpaceOnUse"><stop style="stop-opacity:.10588" offset="0"/><stop style="stop-opacity:0" offset=".5"/><stop style="stop-opacity:.10588" offset="1"/></linearGradient><radialGradient id="radialGradient7381" cx="550.62" cy="221.12" r="2.75" gradientTransform="matrix(.27679 0 0 .2755 -144.24 -48.279)" gradientUnits="userSpaceOnUse" xlink:href="#linearGradient10367"/><linearGradient id="linearGradient7384" x1="15" x2="32" y1="23" y2="23" gradientTransform="matrix(.46904 0 0 .42467 -2.3189 1.0447)" gradientUnits="userSpaceOnUse"><stop style="stop-color:#e08223" offset="0"/><stop style="stop-color:#edd563" offset=".37918"/><stop style="stop-color:#e08223" offset="1"/></linearGradient><linearGradient id="linearGradient7386" x1="18.805" x2="26.856" y1="5.8" y2="43.218" gradientTransform="matrix(.46904 0 0 .42467 -2.3189 1.0447)" gradientUnits="userSpaceOnUse" xlink:href="#linearGradient3926"/><linearGradient id="linearGradient7390" x1="15" x2="32" y1="23" y2="23" gradientTransform="matrix(.47459 0 0 .44348 -2.4316 .87087)" gradientUnits="userSpaceOnUse"><stop style="stop-opacity:.27059" offset="0"/><stop style="stop-opacity:0" offset=".5"/><stop style="stop-opacity:.27059" offset="1"/></linearGradient><linearGradient id="linearGradient7397" x1="718.25" x2="718.5" y1="65.346" y2="110.92" gradientTransform="translate(-679.66 -63.585)" gradientUnits="userSpaceOnUse" xlink:href="#linearGradient9421"/><linearGradient id="linearGradient7401" x1="22" x2="29.624" y1="27.732" y2="61.085" gradientTransform="matrix(.44806 0 0 .17405 5.9852 1.033)" gradientUnits="userSpaceOnUse" xlink:href="#linearGradient4281"/><linearGradient id="linearGradient7405" x1="13.776" x2="32.697" y1="44.446" y2="43.446" gradientTransform="matrix(.48832 0 0 .4529 4.8403 -11.487)" gradientUnits="userSpaceOnUse"><stop style="stop-color:#d7e866" offset="0"/><stop style="stop-color:#fbfbfb;stop-opacity:0" offset="1"/></linearGradient><linearGradient id="linearGradient7408" x1="15" x2="32" y1="23" y2="23" gradientTransform="matrix(.3913 0 0 .42673 7.3044 -2.7239)" gradientUnits="userSpaceOnUse" xlink:href="#linearGradient4253"/><linearGradient id="linearGradient7411" x1="15" x2="32" y1="23" y2="23" gradientTransform="matrix(.44805 0 0 .38193 5.9853 -2.096)" gradientUnits="userSpaceOnUse"><stop style="stop-color:#8cab2a" offset="0"/><stop style="stop-color:#d7e866" offset=".37918"/><stop style="stop-color:#8cab2a" offset="1"/></linearGradient><linearGradient id="linearGradient7413" x1="18.805" x2="26.856" y1="5.8" y2="43.218" gradientTransform="matrix(.44805 0 0 .38193 5.9853 -2.096)" gradientUnits="userSpaceOnUse" xlink:href="#linearGradient4281"/><linearGradient id="linearGradient7417" x1="15" x2="32" y1="23" y2="23" gradientTransform="matrix(.45351 0 0 .4349 5.8717 -3.7294)" gradientUnits="userSpaceOnUse" xlink:href="#linearGradient4241"/><linearGradient id="linearGradient7422" x1="718.25" x2="718.5" y1="65.346" y2="110.92" gradientTransform="translate(-629.66 -79.585)" gradientUnits="userSpaceOnUse" xlink:href="#linearGradient9421"/><radialGradient id="radialGradient7428" cx="21.344" cy="14.125" r="11.969" gradientTransform="matrix(.58486 0 0 .17543 4.517 19.022)" gradientUnits="userSpaceOnUse" xlink:href="#linearGradient3280"/><radialGradient id="radialGradient7432" cx="21.344" cy="14.125" r="11.969" gradientTransform="matrix(.62663 0 0 .2456 3.1253 12.031)" gradientUnits="userSpaceOnUse" xlink:href="#linearGradient3280"/></defs><path d="m24 15.5c-1.039 3.206-4.905 3.402-7.5 3.5-2.653-0.134-6.389-0.287-7.5-3.5 1.038-3.206 4.906-3.402 7.5-3.5 2.6531 0.13362 6.39 0.28699 7.5 3.5003z" style="color:black;fill:url(#radialGradient7432);opacity:.5"/><path d="m24 21.5c-0.969 2.29-4.578 2.43-7 2.5-2.476-0.095-5.963-0.205-7-2.5 0.969-2.29 4.578-2.43 7-2.5 2.4762 0.09544 5.964 0.20499 7 2.5002z" style="color:black;fill:url(#radialGradient7428);opacity:.5"/><path d="m14 20.5c-0.9 3.205-4.2514 3.401-6.5 3.5-2.2994-0.134-5.5373-0.288-6.5-3.5 0.8995-3.206 4.2515-3.402 6.5-3.5 2.2993 0.13361 5.538 0.28697 6.5 3.5z" style="color:black;fill:url(#radialGradient7357);opacity:.5"/><path d="m13 20a5 2 0 0 1-10 0 5 2 0 1 1 10 0z" style="fill:#fff;opacity:.9"/><path d="m22 14.5a5.5 2.5002 0 0 1-11 0 5.5 2.5002 0 1 1 11 0z" style="fill:#fff;opacity:.9"/><path d="m11.541 4.121v10.633c-0.0085 1.0563 2.8101 1.7641 4.9886 1.7641 2.219 0 4.9971-0.74666 4.9886-1.7641v-10.633c-0.032-0.8232-1.518-1.6149-4.989-1.6373-4.529-0.0291-8.0379 1.5163-4.988 1.6373z" style="fill:url(#linearGradient7417);opacity:.6;stroke-linejoin:round;stroke-width:.96418px;stroke:#454545"/><path d="m12.482 7.9723v5.3998c-0.0084 0.92765 2.2403 1.1458 4.0325 1.1458s4.0408-0.25224 4.0325-1.1458v-5.3998c-0.032-0.7229-2.24-0.9144-4.032-0.9144-1.7922 0-4.0408 0.1574-4.0325 0.91451z" style="fill:url(#linearGradient7411);stroke-width:.96418px;stroke:url(#linearGradient7413)"/><path d="m12 4v10.281c-0.0074 1.2651 2.9348 1.7149 4.5 1.7149s4.5073-0.37352 4.5-1.7149v-10.281c0.0074 0.83085-3.1444 1.3493-4.7097 1.3493-1.565 0-4.297-0.4803-4.29-1.3493z" style="fill:url(#linearGradient7408)"/><path d="m20.304 8.1893a4.1258 0.97069 0 0 1-8.2516 0 4.1258 0.97069 0 1 1 8.2516 0z" style="fill:url(#linearGradient7405)"/><path d="m12.482 8.0819c-8e-3 0.4227 2.24 0.5221 4.033 0.5221 1.7922 0 4.0409-0.11501 4.0325-0.52214" style="fill:none;stroke-linecap:round;stroke-width:.964;stroke:url(#linearGradient7401)"/><path d="m21.218 3.4821c-0.032 1.0236-1.218 2.0358-4.718 2.0358s-5.026-0.9639-5.018-2.0358" style="fill:none;opacity:.6;stroke-linecap:round;stroke-linejoin:round;stroke-width:.96418px;stroke:#585858"/><rect transform="matrix(.48539 0 0 .48313 -.081847 1.0187)" x="37.096" y="10.695" width="3.2468" height="19.72" rx="1.1632" ry="1.921" style="enable-background:new;fill:url(#linearGradient7397);filter:url(#filter9752)"/><path d="m3.5009 3.1517v16.567c-0.00886 1.0772 1.9913 1.799 4.2711 1.799 2.3222 0 4.7547-0.7614 4.7459-1.799v-16.567c-0.034-0.8398-1.518-1.6699-4.746-1.6699-3.772 0-6.772 1.5179-4.2711 1.6696z" style="fill:url(#linearGradient7390);opacity:.6;stroke-linejoin:round;stroke-width:.96418px;stroke:#454545"/><path d="m4.4821 9.4989v8.7449c-0.00876 1.0315 1.4071 1.274 3.2833 1.274s3.7612-0.28048 3.7525-1.274v-8.7449c-0.518-0.4991-1.518-1.017-3.7526-1.017-1.7654 0-2.7654 0.5179-3.2833 1.0168z" style="fill:url(#linearGradient7384);stroke-width:.96418px;stroke:url(#linearGradient7386)"/><path d="m8.6983 12.379a0.72808 0.72469 0 0 1-1.4562 0 0.72808 0.72469 0 1 1 1.4562 0z" style="enable-background:new;fill:url(#radialGradient7381);opacity:.6"/><path d="m4 3v16.237c-0.0079 1.301 3.1579 1.763 4.8421 1.763 1.6839 0 3.1659-0.384 3.1579-1.763v-16.237c8e-3 0.8544-1.699 1.3875-3.3835 1.3875-1.6842 0-4.6244-0.4939-4.6165-1.3875z" style="fill:url(#linearGradient7378)"/><path d="m11.356 9.8605a3.3095 0.97069 0 0 1-6.619 0 3.3095 0.97069 0 1 1 6.619 0z" style="fill:url(#linearGradient7375)"/><path d="m4.482 9.482c0.518 0.518 1.518 0.992 3.5181 1.036 1.9994 0.043 2.9999-0.518 3.5179-1.0359" style="fill:none;stroke-linecap:round;stroke-width:.964;stroke:url(#linearGradient7371)"/><path d="m12.518 3.4821c-0.03361 0.5208-2.8535 1.0358-4.7558 1.0358s-4.2889-0.49044-4.28-1.0358" style="fill:none;opacity:.6;stroke-linecap:round;stroke-linejoin:round;stroke-width:.96418px;stroke:#686868"/><rect transform="matrix(.48539 0 0 .48313 -.081847 1.0187)" x="19.16" y="8.9427" width="3.8697" height="30.557" rx="2.4464" ry="1.921" style="enable-background:new;fill:url(#linearGradient7367);filter:url(#filter9752-2)"/><path d="m6.8902 16.69a0.36404 0.36235 0 0 1-0.72808 0 0.36404 0.36235 0 1 1 0.72808 0z" style="enable-background:new;fill:url(#radialGradient7364);opacity:.7"/><path d="m6.7689 18.2a0.36404 0.36235 0 0 1-0.72808 0 0.36404 0.36235 0 1 1 0.72808 0z" style="enable-background:new;fill:url(#radialGradient7360);opacity:.7"/><path d="m22 20.5a5.5 2.5002 0 0 1-11 0 5.5 2.5002 0 1 1 11 0z" style="fill:#fff;opacity:.9"/><path d="m15.131 8.6218-0.0015 2.0953-3.6478 10.083c-0.0086 1.0288 2.8266 1.7181 5.0179 1.7181 2.2321 0 5.0264-0.72719 5.0179-1.7181l-3.6478-10.083-0.0015-2.0953c0.213-0.5182 0.131-1.1164-1.369-1.1392s-3.5 0.4851-1.368 1.139h-1.19e-4z" style="fill:url(#linearGradient7354);opacity:.6;stroke-linejoin:round;stroke-width:.96418px;stroke:#454545"/><path d="m13.802 17.553-0.802 1.922c-0.0076 0.84408 2.0049 1.0426 3.6089 1.0426 1.6039 0 3.6164-0.22952 3.6089-1.0426l-0.80198-1.9228c-0.02834-0.65787-1.203-0.83213-2.8069-0.83213-1.604 0-2.8144 0.14322-2.8069 0.83213z" style="fill:url(#linearGradient7348);stroke-width:.96418px;stroke:url(#linearGradient7350)"/><path d="m15.443 11.225-3.4429 9.7318c1 1.043 2.754 1.033 4.447 1.033 1.694 0 3.553 0.01 4.553-1.088l-3.3345-9.623c0.06063-0.89645-0.23699-1.1138-1.3396-1.2738-0.37503-0.054426-0.99632 0.30479-0.88294 1.2194z" style="fill:url(#linearGradient7345)"/><path d="m19.216 17.852c-0.61006 1.018-1.7511 0.9448-2.608 0.97069-0.89072-0.05119-1.9565 0.03088-2.608-0.97069 0.61006-1.018 1.7511-0.9448 2.608-0.97069 0.89072 0.05119 1.9565-0.03088 2.608 0.97069z" style="fill:url(#linearGradient7342)"/><path d="m14 17.482c0 0.518 1.195 1.036 2.788 1.036s2.212-0.518 2.688-1.036" style="fill:none;stroke-linecap:round;stroke-width:.964;stroke:url(#linearGradient7338)"/><path d="m17.918 8.5821c-0.024 0.9092-1.033 1.0157-1.418 1.0334-0.469 0.0215-1.424-0.0813-1.418-1.0334" style="fill:none;opacity:.6;stroke-linejoin:round;stroke-width:.96418px;stroke:#585858"/><rect transform="matrix(.33233 -.12049 .085587 .46786 -11.986 25.24)" x="85.003" y="-4.9192" width="5.3396" height="19.334" rx="1.5791" ry="1.9425" style="enable-background:new;fill:url(#linearGradient7422);filter:url(#filter9752)"/><path d="m14.268 19.589a0.36404 0.36235 0 0 1-0.72808 0 0.36404 0.36235 0 1 1 0.72808 0z" style="enable-background:new;fill:url(#radialGradient7332);opacity:.7"/><path d="m17.059 20.133a0.36404 0.36235 0 0 1-0.72808 0 0.36404 0.36235 0 1 1 0.72808 0z" style="enable-background:new;fill:url(#radialGradient7329);opacity:.7"/><path d="m6.3804 14.335a0.36404 0.36235 0 0 1-0.72808 0 0.36404 0.36235 0 1 1 0.72808 0z" style="enable-background:new;fill:url(#radialGradient7326);opacity:.7"/><path d="m14.535 20.133a0.36404 0.36235 0 0 1-0.72808 0 0.36404 0.36235 0 1 1 0.72808 0z" style="enable-background:new;fill:url(#radialGradient7323);opacity:.7"/><path d="m19.122 19.589a0.36404 0.36235 0 0 1-0.72808 0 0.36404 0.36235 0 1 1 0.72808 0z" style="enable-background:new;fill:url(#radialGradient7320);opacity:.7"/><path d="m18.418 20.133a0.36404 0.36235 0 0 1-0.72808 0 0.36404 0.36235 0 1 1 0.72808 0z" style="enable-background:new;fill:url(#radialGradient7317);opacity:.7"/><path d="m8.8318 14.758a0.36404 0.36235 0 0 1-0.72808 0 0.36404 0.36235 0 1 1 0.72808 0z" style="enable-background:new;fill:url(#radialGradient7314);opacity:.7"/><path d="m8.7104 16.268a0.36404 0.36235 0 0 1-0.72808 0 0.36404 0.36235 0 1 1 0.72808 0z" style="enable-background:new;fill:url(#radialGradient7311);opacity:.7"/></svg>
