<svg width="24" height="24" version="1.0" xmlns="http://www.w3.org/2000/svg"><defs><linearGradient id="linearGradient5538" x1="17.355" x2="24.008" y1="8" y2="26.039" gradientTransform="matrix(.50044 0 0 .44348 -.014391 .45217)" gradientUnits="userSpaceOnUse"><stop style="stop-color:#fff" offset="0"/><stop style="stop-color:#fff;stop-opacity:0" offset=".85613"/><stop style="stop-color:#fff;stop-opacity:0" offset="1"/></linearGradient><linearGradient id="linearGradient5541" x1="-83.757" x2="-92.223" y1="-7.838" y2="27.521" gradientTransform="matrix(.30561 -.073444 .073169 .30676 38.171 .43828)" gradientUnits="userSpaceOnUse"><stop style="stop-color:#fff" offset="0"/><stop style="stop-color:#d3eefc" offset="1"/></linearGradient><linearGradient id="linearGradient5546" x1="24" x2="24" y1="32.5" y2="4.5005" gradientTransform="matrix(.46341 0 0 .46428 .8783 1.4105)" gradientUnits="userSpaceOnUse"><stop style="stop-color:#2f7b48" offset="0"/><stop style="stop-color:#76dd98" offset="1"/></linearGradient><linearGradient id="linearGradient5548" x1="31.077" x2="30.888" y1="33" y2="4.0005" gradientTransform="matrix(.46341 0 0 .46428 .8783 1.4105)" gradientUnits="userSpaceOnUse"><stop style="stop-color:#28673f" offset="0"/><stop style="stop-color:#41ae67" offset="1"/></linearGradient><radialGradient id="radialGradient5551" cx="1" cy="5.5643" r="23" gradientTransform="matrix(.46667 0 0 .33733 .79996 4.6027)" gradientUnits="userSpaceOnUse"><stop style="stop-color:#fff" offset="0"/><stop style="stop-color:#fff;stop-opacity:0" offset="1"/></radialGradient><linearGradient id="linearGradient5554" x1="20.147" x2="20.104" y1="-.0004971" y2="31.983" gradientTransform="matrix(.49016 0 0 .54896 .23601 1.2167)" gradientUnits="userSpaceOnUse"><stop style="stop-color:#f0f0f0" offset="0"/><stop style="stop-color:#d2d2d2" offset="1"/></linearGradient><linearGradient id="linearGradient5560" x1="320.04" x2="320.04" y1="85.486" y2="95.486" gradientTransform="matrix(.52747 0 0 .50002 -156.81 -24.744)" gradientUnits="userSpaceOnUse"><stop style="stop-color:#787878" offset="0"/><stop style="stop-color:#bebebe" offset=".28718"/><stop style="stop-color:#c8c8c8" offset=".42337"/><stop style="stop-color:#fafafa" offset=".58038"/><stop style="stop-color:#8c8c8c" offset="1"/></linearGradient><linearGradient id="linearGradient5562" x1="22.124" x2="22.124" y1="34.486" y2="44.487" gradientTransform="matrix(.52937 0 0 .49994 -.71176 .75903)" gradientUnits="userSpaceOnUse"><stop style="stop-color:#505050" offset="0"/><stop style="stop-color:#a0a0a0" offset=".29325"/><stop style="stop-color:#aaa" offset=".41122"/><stop style="stop-color:#dcdcdc" offset=".5918"/><stop style="stop-color:#6e6e6e" offset="1"/></linearGradient><radialGradient id="radialGradient5565" cx="6.7027" cy="73.616" r="7.2284" gradientTransform="matrix(1.1067 0 0 .20751 4.5818 7.2237)" gradientUnits="userSpaceOnUse"><stop offset="0"/><stop style="stop-opacity:0" offset="1"/></radialGradient></defs><g><path d="m20 22.5c0 0.828-3.582 1.5-8 1.5-4.4183 0-8-0.672-8-1.5s3.5817-1.5 8-1.5 8 0.67157 8 1.5z" style="fill:url(#radialGradient5565);opacity:.35"/><path d="m9.5 16.507v3.5001c-0.011657 0.90102-1.4136 1.5-1.4136 1.5-0.39632 0.04422-0.5934 0.22301-0.5934 0.50002s0.26681 0.50002 0.5934 0.50002h7.8134c0.3266 0 0.5934-0.22301 0.5934-0.50002s-0.19709-0.4558-0.5934-0.50002c0 0-1.3881-0.59903-1.3998-1.5v-3.5001h-5z" style="enable-background:new;fill:url(#linearGradient5560);stroke-dashoffset:.5;stroke-linecap:round;stroke-linejoin:round;stroke:url(#linearGradient5562)"/><rect x=".49997" y="1.5" width="23" height="17" style="fill:url(#linearGradient5554);stroke-dashoffset:.5;stroke-linecap:round;stroke-linejoin:round;stroke-width:.99995;stroke:#b4b4b4"/><rect x="1.5" y="2.5" width="21" height="15" rx="0" ry="0" style="enable-background:new;fill:none;stroke-dashoffset:.5;stroke-linecap:round;stroke-linejoin:round;stroke-width:.99996;stroke:url(#radialGradient5551)"/><path d="m2.5 3.5h19v13h-19v-13z" style="fill:url(#linearGradient5546);stroke:url(#linearGradient5548)"/><path d="m15.094 4.3134c-0.16815-0.01713-0.33533 0.065537-0.42173 0.22424l-3.681 6.7604-2.3669-1.8888c-0.2109-0.1156-0.4739-0.0413-0.5891 0.1703l-1.0613 1.3675c-0.11519 0.2116-0.037699 0.47554 0.17311 0.59117 0 0 4.3213 3.5824 4.3266 3.5851 0.04941 0.0271 0.10108 0.04074 0.1536 0.0474 0.17157 0.02176 0.34716-0.05915 0.43535-0.22116l4.965-9.1176c0.115-0.2116 0.038-0.4755-0.173-0.5912l-1.593-0.8774c-0.0527-0.028907-0.11118-0.044768-0.16723-0.050477z" style="opacity:.35"/><path d="m15.094 4.7911c-0.16815-0.01713-0.33533 0.065537-0.42173 0.22424l-3.681 6.7607-2.3669-1.889c-0.2109-0.1157-0.4739-0.0413-0.5891 0.17l-1.0613 1.3677c-0.11519 0.2116-0.037699 0.47554 0.17311 0.59117 0 0 4.3213 3.5824 4.3266 3.5851 0.04941 0.0271 0.10108 0.04074 0.1536 0.0474 0.17157 0.02176 0.34716-0.05915 0.43535-0.22116l4.965-9.1178c0.115-0.2116 0.038-0.4756-0.173-0.5912l-1.593-0.8774c-0.0527-0.028907-0.11118-0.044768-0.16723-0.050477z" style="fill:url(#linearGradient5541)"/><path d="m3 4.0139v7.9861c0.8571-0.191 17.719-4.6546 18-4.8904v-3.1096l-18 0.0139z" style="fill-rule:evenodd;fill:url(#linearGradient5538);opacity:.3"/></g></svg>
