<svg width="24" height="24" version="1.0" xmlns="http://www.w3.org/2000/svg" xmlns:xlink="http://www.w3.org/1999/xlink"><defs><linearGradient id="linearGradient3688"><stop offset="0"/><stop style="stop-opacity:0" offset="1"/></linearGradient><linearGradient id="linearGradient5460"><stop style="stop-color:#e5e5e5" offset="0"/><stop style="stop-color:#c8c8c8" offset="1"/></linearGradient><linearGradient id="linearGradient2296"><stop style="stop-color:#fff" offset="0"/><stop style="stop-color:#fff;stop-opacity:0" offset="1"/></linearGradient><linearGradient id="linearGradient3116"><stop style="stop-color:#e5e5e5" offset="0"/><stop style="stop-color:#dfdfdf" offset="1"/></linearGradient><linearGradient id="linearGradient5618" x1="48" x2="78" y1="18.534" y2="18.534" gradientTransform="matrix(.96932 .30347 -.31303 .99988 -26.514 -28.878)" gradientUnits="userSpaceOnUse" xlink:href="#linearGradient2296"/><linearGradient id="linearGradient5514" x1="54.287" x2="68.843" y1="9.1136" y2="38.118" gradientTransform="matrix(.43534 -.0063447 .005796 .43805 -18.844 1.7597)" gradientUnits="userSpaceOnUse" xlink:href="#linearGradient2296"/><linearGradient id="linearGradient5519" x1="34.562" x2="50.809" y1="17.249" y2="44.77" gradientTransform="matrix(.33402 0 0 .48314 -4.0698 1.449)" gradientUnits="userSpaceOnUse" xlink:href="#linearGradient3116"/><radialGradient id="radialGradient5521" cx="1.8372" cy="7.3192" r="5.988" gradientTransform="matrix(1 0 0 1.4178 1.0015 -4.2189)" gradientUnits="userSpaceOnUse" xlink:href="#linearGradient2296"/><linearGradient id="linearGradient5524" x1="35.321" x2="51.861" y1="24.984" y2="41.37" gradientTransform="matrix(.37466 0 0 .51578 -5.3786 .53683)" gradientUnits="userSpaceOnUse" xlink:href="#linearGradient5460"/><linearGradient id="linearGradient5531" x1="54.287" x2="68.843" y1="9.1136" y2="38.118" gradientTransform="matrix(.43534 -.0063415 .005796 .43784 -10.844 -1.2387)" gradientUnits="userSpaceOnUse" xlink:href="#linearGradient2296"/><linearGradient id="linearGradient5535" x1="34.562" x2="50.809" y1="17.249" y2="44.77" gradientTransform="matrix(.33403 0 0 .48314 3.9253 -1.5665)" gradientUnits="userSpaceOnUse" xlink:href="#linearGradient3116"/><radialGradient id="radialGradient5537" cx="9.5666" cy="3.9302" r="5.988" gradientTransform="matrix(1 0 0 1.4178 1.0015 -2.9591)" gradientUnits="userSpaceOnUse" xlink:href="#linearGradient2296"/><linearGradient id="linearGradient5540" x1="35.321" x2="51.861" y1="24.984" y2="41.37" gradientTransform="matrix(.37466 0 0 .51578 2.6165 -2.4781)" gradientUnits="userSpaceOnUse" xlink:href="#linearGradient5460"/><radialGradient id="radialGradient5912" cx="4.993" cy="43.5" r="2.5" gradientTransform="matrix(1.2023 0 0 1.3 12.993 -84.8)" gradientUnits="userSpaceOnUse" xlink:href="#linearGradient3688"/><radialGradient id="radialGradient5914" cx="4.993" cy="43.5" r="2.5" gradientTransform="matrix(1.2023 0 0 1.3 -10.007 -84.8)" gradientUnits="userSpaceOnUse" xlink:href="#linearGradient3688"/><linearGradient id="linearGradient5916" x1="25.058" x2="25.058" y1="47.028" y2="39.999" gradientTransform="matrix(.53571 0 0 .92857 -1.3571 -12.143)" gradientUnits="userSpaceOnUse"><stop style="stop-opacity:0" offset="0"/><stop offset=".5"/><stop style="stop-opacity:0" offset="1"/></linearGradient></defs><g><g transform="matrix(.7619 0 0 .46154 -.7619 9.4615)" style="enable-background:new"><rect transform="scale(1,-1)" x="19" y="-31.5" width="3" height="6.5" style="enable-background:new;fill:url(#radialGradient5912);opacity:.4"/><rect transform="scale(-1)" x="-4" y="-31.5" width="3" height="6.5" style="fill:url(#radialGradient5914);opacity:.4"/><rect x="4" y="25" width="15" height="6.5" style="fill:url(#linearGradient5916);opacity:.4"/></g><g transform="matrix(.7619 0 0 .46154 7.2381 6.4615)" style="enable-background:new"><rect transform="scale(1,-1)" x="19" y="-31.5" width="3" height="6.5" style="enable-background:new;fill:url(#radialGradient5912);opacity:.4"/><rect transform="scale(-1)" x="-4" y="-31.5" width="3" height="6.5" style="fill:url(#radialGradient5914);opacity:.4"/><rect x="4" y="25" width="15" height="6.5" style="fill:url(#linearGradient5916);opacity:.4"/></g><g transform="matrix(.36301 -.097393 .095787 .36909 4.5108 6.5647)" style="enable-background:new;stroke-width:2.8891"><path d="m11.249 13.686c11.018 7.8164 20.074 0.26802 29.08 9.104l5.176-18.012-1.194-2.5246-24.804-7.853-2.717 1.3052-5.541 17.98z" style="fill-rule:evenodd;fill:url(#linearGradient5618);opacity:.51648"/></g><rect transform="matrix(1 .00189 -.0015676 1 0 0)" x="9.5285" y="1.48" width="12.976" height="17.98" rx="1.2713" ry="1.3029" style="enable-background:new;fill:url(#linearGradient5540);stroke-linecap:round;stroke:#888a85"/><rect transform="matrix(1 .0019196 -.001542 1 0 0)" x="10.528" y="2.4794" width="10.976" height="15.98" rx=".21896" ry=".22779" style="enable-background:new;fill:url(#linearGradient5535);stroke-linecap:round;stroke-width:1.0001;stroke:url(#radialGradient5537)"/><path d="m11.976 3c-0.69727 0.77145-0.97954 0.98608-0.97554 1.4117 0.0039 0.41372 0.47248 0.76588 0.87174 0.4978 0.04599 0.18528 0.05888 0.39295-0.15723 0.55583 0.01768-3.626e-4 0.57132 0 0.57132 0-0.19615-0.16698-0.20743-0.38197-0.15205-0.58946 0.44751 0.30546 0.87109-0.044823 0.86614-0.5264-0.0051-0.50494-0.26809-0.66059-1.0244-1.3494z" style="enable-background:new;fill-rule:evenodd"/><path d="m10.066 10.602c5.5309 1.6612 7.0816-2.6485 11.928-0.31924l0.0053-7.4449c5e-3 -0.4217-0.196-0.7021-0.82-0.6942l-10.245-0.1439c-0.58816-0.0015-0.95547 0.49748-0.93285 0.8735l0.06515 7.7282z" style="enable-background:new;fill-rule:evenodd;fill:url(#linearGradient5531);opacity:.51648"/><path d="m15.902 6c-2.7891 2.6337-3.9181 3.3664-3.9022 4.8194 0.0155 1.4124 1.8899 2.6147 3.487 1.6995 0.18395 0.63252 0.23552 1.3415-0.62889 1.8976 0.07073-0.0012 2.2852 0 2.2852 0-0.78458-0.57004-0.82967-1.304-0.60815-2.0124 1.79 1.0428 3.4843-0.15302 3.4645-1.7971-0.019-1.7239-1.072-2.2553-4.097-4.607z" style="fill-rule:evenodd"/><path d="m19.976 18c-0.69727-0.77126-0.97953-0.98583-0.97555-1.4113 0.0039-0.41362 0.47249-0.76569 0.87175-0.49768 0.04599-0.18523 0.05887-0.39285-0.15723-0.55569 0.01768 3.62e-4 0.5713 0 0.5713 0-0.19614 0.16693-0.20741 0.38188-0.15204 0.58931 0.44751-0.30538 0.87109 0.04481 0.86613 0.52626-0.0051 0.50482-0.26809 0.66043-1.0244 1.3491z" style="enable-background:new;fill-rule:evenodd"/><g transform="matrix(.36309 -.097342 .09581 .3689 -3.4877 9.5715)" style="stroke-width:2.8891"><path d="m11.249 13.686c11.018 7.8164 20.074 0.26802 29.08 9.104l5.176-18.012-1.194-2.5246-24.804-7.853-2.717 1.3052-5.541 17.98z" style="fill-rule:evenodd;fill:url(#linearGradient5618);opacity:.51648"/></g><rect transform="matrix(1 .00189 -.0015676 1 0 0)" x="1.5334" y="4.4949" width="12.976" height="17.98" rx="1.2713" ry="1.3029" style="fill:url(#linearGradient5524);stroke-linecap:round;stroke-width:1.0004;stroke:#888a85"/><rect transform="matrix(1 .0019197 -.001542 1 0 0)" x="2.5329" y="5.4949" width="10.976" height="15.979" rx=".21896" ry=".22779" style="fill:url(#linearGradient5519);stroke-linecap:round;stroke-width:1.0003;stroke:url(#radialGradient5521)"/><path d="m7.954 10.845c1.7196-1.9288 4.068-0.134 4.046 1.703-0.02 1.678-1.155 2.478-4.0085 5.452-2.9669-2.791-4.0134-3.436-3.9912-5.428 0.0226-2.062 2.0432-3.6007 3.9537-1.727z" style="fill-rule:evenodd;fill:#c00"/><path d="m3.9885 6.2114c0.4299-0.4823 1.0169-0.0336 1.0115 0.4255-5e-3 0.4197-0.2887 0.6195-1.0021 1.3631-0.7418-0.6977-1.0034-0.859-0.9978-1.3569 0.0056-0.5155 0.5108-0.9003 0.9884-0.4317z" style="enable-background:new;fill-rule:evenodd;fill:#c00"/><path d="m2.0661 13.606c5.5309 1.6621 7.0815-2.6498 11.928-0.3194l0.0053-7.4486c5e-3 -0.4218-0.196-0.7024-0.82-0.6944l-10.245-0.144c-0.5883-0.0015-0.9556 0.4977-0.933 0.8739l0.065157 7.732z" style="fill-rule:evenodd;fill:url(#linearGradient5514);opacity:.51648"/><path d="m11.988 20.789c0.42989 0.48232 1.0169 0.03359 1.0115-0.42553-5e-3 -0.41972-0.28863-0.61953-1.0021-1.3631-0.74172 0.69769-1.0033 0.85896-0.99778 1.3569 0.0056 0.51549 0.51079 0.90024 0.98841 0.43168z" style="enable-background:new;fill-rule:evenodd;fill:#c00"/></g></svg>
