<svg width="24" height="24" version="1.0" xmlns="http://www.w3.org/2000/svg" xmlns:xlink="http://www.w3.org/1999/xlink"><defs><linearGradient id="linearGradient3156"><stop style="stop-color:#fff" offset="0"/><stop style="stop-color:#fff;stop-opacity:0" offset="1"/></linearGradient><linearGradient id="linearGradient5575" x1="30.502" x2="29.725" y1="55.647" y2="24.654" gradientUnits="userSpaceOnUse" xlink:href="#linearGradient3156"/><linearGradient id="linearGradient5577" x1="28.221" x2="28.29" y1="-2.3103" y2="20.664" gradientUnits="userSpaceOnUse" xlink:href="#linearGradient3156"/><linearGradient id="linearGradient5579" x1="27.889" x2="28.29" y1="-.81503" y2="20.664" gradientUnits="userSpaceOnUse" xlink:href="#linearGradient3156"/><linearGradient id="linearGradient5581" x1="24.335" x2="28.29" y1="61.853" y2="20.664" gradientUnits="userSpaceOnUse" xlink:href="#linearGradient3156"/><radialGradient id="radialGradient5863" cx="62.625" cy="4.625" r="10.625" gradientTransform="matrix(1 0 0 .34118 0 3.0471)" gradientUnits="userSpaceOnUse"><stop offset="0"/><stop style="stop-opacity:0" offset="1"/></radialGradient><radialGradient id="radialGradient5552" cx="21.419" cy="13.344" r="14" fy="6.8828" gradientTransform="matrix(.70713 0 0 .47143 -6.0986 .29274)" gradientUnits="userSpaceOnUse" xlink:href="#linearGradient3156"/><radialGradient id="radialGradient5555" cx="102.75" cy="33" r="9" gradientTransform="matrix(1.1993 0 0 1.1 -114.8 -33.1)" gradientUnits="userSpaceOnUse" xlink:href="#linearGradient3156"/><radialGradient id="radialGradient5558" cx="11.035" cy="7.7555" r="8.1341" gradientTransform="matrix(1.7443 -.10345 .095836 1.6159 -7.9566 -3.1377)" gradientUnits="userSpaceOnUse"><stop style="stop-color:#87A752" offset="0"/><stop style="stop-color:#ADC980" offset="1"/></radialGradient><radialGradient id="radialGradient5564" cx="20.143" cy="16.441" r="22.464" gradientTransform="matrix(.79945 -.0030777 .0024876 .64707 -6.5003 -2.3705)" gradientUnits="userSpaceOnUse"><stop style="stop-color:#70adfb" offset="0"/><stop style="stop-color:#3465a4" offset="1"/></radialGradient><linearGradient id="linearGradient5566" x1="106" x2="106" y1="40.125" y2="51" gradientTransform="matrix(1.1045 0 0 1.1045 -105.08 -33.286)" gradientUnits="userSpaceOnUse"><stop style="stop-color:#4580d4" offset="0"/><stop style="stop-color:#114796" offset="1"/></linearGradient></defs><g><path transform="matrix(.94118 0 0 .68966 -46.941 18.31)" d="m73.25 4.625c0 2.002-4.757 3.625-10.625 3.625s-10.625-1.623-10.625-3.625 4.757-3.625 10.625-3.625 10.625 1.623 10.625 3.625z" style="enable-background:new;fill-rule:evenodd;fill:url(#radialGradient5863);opacity:.4"/><path d="m22.5 12c0 5.796-4.704 10.5-10.5 10.5s-10.5-4.704-10.5-10.5c0-5.7959 4.704-10.5 10.5-10.5s10.5 4.704 10.5 10.5z" style="fill:url(#radialGradient5564);stroke-linecap:round;stroke-linejoin:round;stroke:url(#linearGradient5566)"/><path d="m21.682 9.8466-0.094 0.36235c-0.278-0.2311-0.591-0.4254-0.908-0.6284l-0.6962 0.072213-0.63607-0.50684v0.62725l0.54495 0.29067 0.36272 0.28955 0.48473-0.38642c0.12202 0.1611 0.24237 0.3222 0.36355 0.4833v0.48277l-0.54578 0.43457-0.99879 0.4833-0.75642 0.53208-0.48474-0.3876 0.24237-0.43457-0.48398-0.38642-0.81738-1.2315-0.6962-0.55498-0.18223 0.14448 0.27327 0.70064 0.51405 0.4105c0.29359 0.59743 0.58401 1.1684 0.96955 1.7395 0.59784 0 1.1614-0.04474 1.7552-0.09746v0.33828l-0.72635 1.2559-0.66614 0.53091-0.54495 0.82216v1.3519l0.18223 0.53208-0.30258 0.24083-0.66697 0.29008-0.6962 0.4105 0.57585 0.4587-0.78732 0.48388 0.15125 0.31304-1.181 0.94258h-0.78649l-0.66614 0.29008h-0.4246v-0.38642l-0.18057-0.77402c-0.23429-0.48506-0.47824-0.96665-0.72635-1.4482 0-0.35548 0.03007-0.70751 0.06022-1.0629l0.30342-0.48277-0.4246-0.58022 0.0309-0.79692-0.57585-0.4587 0.28793-0.66394-0.46849-0.37468h-0.81822l-0.273-0.217-0.817 0.363-0.3326-0.266-0.7573 0.459c-0.514-0.411-1.0289-0.822-1.5437-1.232l-0.6052-1.015 0.545-0.579-0.3026-0.241 0.6653-1.1121c0.5466-0.4793 1.1176-0.9391 1.6951-1.4006l1.0297-0.19321 1.1501-0.096342 0.78732 0.14507 1.12 0.79633 0.3937-0.31362 0.54412-0.048142 1.0297 0.24135h0.78732l0.54495-0.33828 0.24237-0.24135-0.54578-0.24135-0.9085-0.048142c-0.252-0.2465-0.486-0.5056-0.786-0.7247l-0.303 0.0964-0.121 0.6283-0.545-0.4345-0.121-0.4839-0.605-0.3371h-0.2432l0.60592 0.48277-0.24237 0.43457-0.48398 0.096342 0.303-0.4346-0.546-0.1927-0.483-0.3864-0.909 0.1445-0.121 0.1926-0.545 0.242-0.3021 0.5315-0.7564 0.2654-0.3335-0.2654h-0.36272v-0.86972l0.78732-0.29008h0.60517l-0.122-0.3377-0.4832-0.3383 0.8166-0.121 0.4538-0.3618 0.36272-0.43515h0.66697l-0.18223-0.3377 0.4246-0.19321v0.38642l0.90767 0.14448 0.90767-0.53091 0.06097-0.24194 0.78648-0.38613c-0.28468 0.024952-0.56935 0.043268-0.84754 0.096636v-0.43509l0.30258-0.48306h-0.30258l-0.66497 0.43457-0.18223 0.24165 0.18223 0.33858-0.30342 0.57905-0.48398-0.19321-0.42294-0.3377-0.66697 0.3377-0.24237-0.77256 1.1501-0.5312v-0.29008l0.7271-0.33799 1.1501-0.19351 0.78732 0.19351 1.0899 0.48277h-0.78732l0.78732 0.57964 0.60517-0.48277s2.4081 1.2085 3.6518 2.8799c1.2102 1.6263 1.7168 3.4747 1.7697 3.8588z" style="fill:url(#radialGradient5558)"/><path d="m21.374 12c0 5.1745-4.1995 9.3742-9.3739 9.3742s-9.3739-4.1996-9.3739-9.3742 4.1995-9.3742 9.3739-9.3742 9.3739 4.1996 9.3739 9.3742z" style="fill:none;opacity:.4;stroke-linecap:round;stroke-linejoin:round;stroke-width:1.0517;stroke:url(#radialGradient5555)"/><path d="m22.01 8.5518c0 3.6432-4.4351 5.6481-9.8998 5.6481s-9.8998-2.0049-9.8998-5.6481 4.4351-7.552 9.8998-7.552 9.8998 3.9087 9.8998 7.552z" style="fill:url(#radialGradient5552);opacity:.4"/><path transform="matrix(.53414 -.14026 .096919 .34395 -5.5733 8.6565)" d="m46 24.25c0 9.665-7.835 17.5-17.5 17.5s-17.5-7.835-17.5-17.5 7.835-17.5 17.5-17.5 17.5 7.835 17.5 17.5z" style="fill:none;opacity:.5;stroke-linecap:round;stroke-width:2.2444;stroke:url(#linearGradient5581)"/><path transform="matrix(.54285 -.0033948 .00054207 .3714 -3.4843 3.0902)" d="m46 24.25c0 9.665-7.835 17.5-17.5 17.5s-17.5-7.835-17.5-17.5 7.835-17.5 17.5-17.5 17.5 7.835 17.5 17.5z" style="fill:none;opacity:.5;stroke-linecap:round;stroke-width:2.2279;stroke:url(#linearGradient5579)"/><path transform="matrix(-.04856 -.54248 .33934 -.019372 4.6551 27.93)" d="m46 24.25c0 9.665-7.835 17.5-17.5 17.5s-17.5-7.835-17.5-17.5 7.835-17.5 17.5-17.5 17.5 7.835 17.5 17.5z" style="fill:none;opacity:.5;stroke-linecap:round;stroke-width:2.3269;stroke:url(#linearGradient5577)"/><path transform="matrix(-.080599 -.53926 .24452 .0082709 9.3675 27.1)" d="m46 24.25c0 9.665-9.304 23.928-18.968 23.928-9.665 0-16.032-14.263-16.032-23.928s7.835-17.5 17.5-17.5 17.5 7.835 17.5 17.5z" style="fill:none;opacity:.9;stroke-linecap:round;stroke-width:2.7249;stroke:url(#linearGradient5575)"/><g transform="matrix(.49781 -.13842 .13541 .50886 -.64696 1.0422)" style="stroke-width:2.108"><path transform="matrix(.85714 0 0 .85714 4.1071 5.0357)" d="m31.375 37.875c0 0.9665-0.7835 1.75-1.75 1.75s-1.75-0.7835-1.75-1.75 0.7835-1.75 1.75-1.75 1.75 0.7835 1.75 1.75z" style="fill:#fff;opacity:.8"/></g><g transform="matrix(.49172 -.11974 .15605 .51358 -13.084 3.1819)" style="opacity:.6;stroke-width:2.1112"><path transform="matrix(.85714 0 0 .85714 4.1071 5.0357)" d="m31.375 37.875c0 0.9665-0.7835 1.75-1.75 1.75s-1.75-0.7835-1.75-1.75 0.7835-1.75 1.75-1.75 1.75 0.7835 1.75 1.75z" style="fill:#fff;opacity:.5"/></g><g transform="matrix(.47705 -.16815 .19641 .49982 -5.4521 -7.9074)" style="stroke-width:2.1103"><path transform="matrix(.85714 0 0 .85714 4.1071 5.0357)" d="m31.375 37.875c0 0.9665-0.7835 1.75-1.75 1.75s-1.75-0.7835-1.75-1.75 0.7835-1.75 1.75-1.75 1.75 0.7835 1.75 1.75z" style="fill:#fff;opacity:.8"/></g><g transform="matrix(.51592 -.14876 -.0086906 .50593 -9.1199 -7.3754)" style="opacity:.6;stroke-width:2.1575"><path transform="matrix(.85714 0 0 .85714 4.1071 5.0357)" d="m31.375 37.875c0 0.9665-0.7835 1.75-1.75 1.75s-1.75-0.7835-1.75-1.75 0.7835-1.75 1.75-1.75 1.75 0.7835 1.75 1.75z" style="fill:#fff;opacity:.5"/></g></g></svg>
